<?xml version="1.0" encoding="UTF-8"?>
<svg id="_레이어_1" data-name="레이어 1" xmlns="http://www.w3.org/2000/svg" viewBox="0 0 1920 1080">
  <defs>
    <style>
      .cls-1 {
        fill: #fff;
        stroke: #fff;
        stroke-miterlimit: 10;
      }
    </style>
  </defs>
  <path class="cls-1" d="M216.02,257.24l-4.95-23.18h-11.96l-4.95,23.18-5.4-23.18h-10.95l8.08,35.27h15.18l4.02-16.56,4.02,16.56h15.18l8.08-35.27h-10.95l-5.4,23.18ZM282.95,234.03h-12.92l-16.43,35.3h11.77l11.13-24.3,11.12,24.3h11.78l-16.45-35.3ZM237.62,269.33h12.82v-35.3h-12.82v35.3Z"/>
  <rect class="cls-1" x="250.44" y="225.1" width="8.94" height="8.93"/>
  <polygon class="cls-1" points="148.54 217.13 141.4 217.13 141.4 211.16 138.04 211.16 138.04 226.43 141.4 226.43 141.4 220.1 148.54 220.1 148.54 226.43 151.88 226.43 151.88 211.16 148.54 211.16 148.54 217.13"/>
  <g>
    <path class="cls-1" d="M221.37,212.04c-.7.72-.74,1.76-.75,2.37v12.02h3.34v-4.87h7.12v4.87h3.36v-15.27h-10.45c-.99,0-1.92.15-2.62.87M224.83,214.14h6.26v4.43h-7.12v-3.56c.02-.18-.02-.49.13-.68.16-.2.41-.19.73-.19"/>
    <path class="cls-1" d="M197.64,211.16h-10.47v15.27h3.35v-12.29h6.29c.31,0,.57,0,.73.2.15.19.12.5.12.68v11.41h3.35v-12.02c-.02-.61-.05-1.66-.75-2.38-.69-.72-1.62-.86-2.63-.87"/>
    <path class="cls-1" d="M180.86,222.57c-.01.17.01.49-.13.68-.16.2-.41.18-.73.19h-6.28v-12.28h-3.35v15.27h10.47c1.01,0,1.93-.15,2.62-.87.71-.72.73-1.77.76-2.38v-12.02h-3.35v11.41Z"/>
    <path class="cls-1" d="M217.83,214.41c-.01-.61-.03-1.66-.74-2.38-.71-.72-1.63-.86-2.62-.87h-10.48v15.27h10.48c.99,0,1.91-.15,2.62-.87.7-.72.72-1.77.74-2.38v-8.77ZM214.5,222.57c-.02.18.01.49-.13.68-.16.2-.41.18-.73.19h-6.29v-9.3h6.29c.32,0,.57,0,.73.19.14.19.11.5.13.68v7.56Z"/>
  </g>
  <polygon class="cls-1" points="161.13 217.84 157.06 211.16 153.07 211.16 159.33 220.79 159.33 226.43 162.92 226.43 162.92 220.79 169.17 211.16 165.19 211.16 161.13 217.84"/>
  <rect class="cls-1" x="237.81" y="211.16" width="3.56" height="15.27"/>
  <path class="cls-1" d="M353.34,273.31l1.09-3.02,1.08,3.02h-2.17ZM354.04,269.37l-2.25,6.09h.77l.56-1.57h2.59l.56,1.57h.78l-2.24-6.09h-.77Z"/>
  <polygon class="cls-1" points="364.77 274.26 361.53 269.37 360.8 269.37 360.8 275.47 361.53 275.47 361.53 270.58 364.77 275.47 365.51 275.47 365.51 269.37 364.77 269.37 364.77 274.26"/>
  <polygon class="cls-1" points="373.62 274.26 370.37 269.37 369.64 269.37 369.64 275.47 370.37 275.47 370.37 270.58 373.62 275.47 374.35 275.47 374.35 269.37 373.62 269.37 373.62 274.26"/>
  <rect class="cls-1" x="378.48" y="269.37" width=".73" height="6.09"/>
  <polygon class="cls-1" points="385.6 274.69 383.68 269.37 382.89 269.37 385.18 275.47 386.03 275.47 388.32 269.37 387.54 269.37 385.6 274.69"/>
  <polygon class="cls-1" points="392 275.47 395.77 275.47 395.77 274.87 392.73 274.87 392.73 272.69 395.51 272.69 395.51 272.1 392.73 272.1 392.73 269.98 395.77 269.98 395.77 269.37 392 269.37 392 275.47"/>
  <g>
    <path class="cls-1" d="M400.48,269.99h1.17c.48,0,.83.11,1.04.32.21.21.32.5.32.86s-.11.64-.33.87c-.22.23-.56.34-1.02.34h-1.18v-2.39ZM402.86,272.71c.31-.16.53-.38.68-.65.15-.27.22-.57.22-.9s-.07-.64-.22-.91c-.15-.27-.37-.48-.67-.64-.3-.16-.69-.24-1.17-.24h-1.97v6.09h.73v-2.51h1.2s.03,0,.05,0l1.24,2.52h.86l-1.33-2.62c.13-.04.25-.08.36-.14"/>
    <path class="cls-1" d="M411.01,272.49c-.23-.14-.49-.26-.79-.36-.26-.09-.5-.17-.71-.24-.21-.07-.4-.15-.56-.23s-.28-.19-.36-.31c-.08-.12-.13-.28-.13-.48,0-.21.05-.39.14-.53.1-.14.23-.26.4-.34.17-.08.37-.11.59-.11.27,0,.49.05.67.16.18.11.31.24.4.4.09.16.13.33.13.5h.77c0-.33-.08-.62-.24-.87-.16-.25-.39-.45-.68-.6-.29-.15-.62-.22-1.01-.22s-.74.07-1.02.21-.51.34-.66.59c-.15.25-.23.54-.23.87,0,.39.11.7.34.94.23.24.58.44,1.06.6.25.09.49.17.72.24.23.07.43.15.61.25.17.09.31.21.41.36.1.15.15.34.15.58,0,.2-.05.37-.15.53-.1.16-.25.28-.44.37s-.43.14-.7.14c-.31,0-.58-.06-.79-.18-.21-.12-.37-.28-.48-.48-.11-.2-.17-.42-.17-.66h-.77c0,.38.09.72.27,1.01s.44.52.77.68.72.24,1.17.24.84-.08,1.14-.24c.3-.16.53-.37.68-.63.15-.26.23-.53.23-.82,0-.34-.07-.62-.19-.84-.13-.22-.31-.4-.54-.54"/>
  </g>
  <path class="cls-1" d="M416.77,273.31l1.09-3.02,1.08,3.02h-2.17ZM417.48,269.37l-2.25,6.09h.77l.56-1.57h2.59l.56,1.57h.77l-2.24-6.09h-.77Z"/>
  <path class="cls-1" d="M424.96,269.99h1.17c.48,0,.83.11,1.04.32s.32.5.32.86-.11.64-.33.87c-.22.23-.56.34-1.02.34h-1.18v-2.39ZM427.35,272.71c.31-.16.53-.38.68-.65.15-.27.22-.57.22-.9s-.07-.64-.22-.91c-.15-.27-.37-.48-.67-.64-.3-.16-.69-.24-1.17-.24h-1.97v6.09h.73v-2.51h1.2s.03,0,.05,0l1.24,2.52h.86l-1.33-2.62c.13-.04.25-.08.36-.14"/>
  <polygon class="cls-1" points="435.37 269.37 433.85 272.45 432.33 269.37 431.5 269.37 433.48 273.15 433.48 275.47 434.21 275.47 434.21 273.15 436.19 269.37 435.37 269.37"/>
  <g>
    <path class="cls-1" d="M434.95,216.24c-.27,0-.51-.04-.71-.13-.2-.08-.36-.23-.47-.43-.11-.2-.17-.47-.17-.8v-1.88h-.69v-.81h.69l.11-1.07h.85v1.07h1.1v.81h-1.1v1.88c0,.2.04.34.13.42.09.08.24.12.45.12h.5v.82h-.69Z"/>
    <path class="cls-1" d="M436.58,216.24v-5.79h.96v2.36c.13-.22.32-.4.55-.53.23-.13.49-.2.78-.2.33,0,.61.07.84.2.23.14.41.34.53.6.12.26.18.6.18.99v2.35h-.96v-2.26c0-.35-.07-.61-.22-.8-.15-.18-.37-.27-.67-.27-.19,0-.37.05-.52.14-.16.09-.28.23-.37.4-.09.17-.14.39-.14.64v2.15h-.96Z"/>
    <path class="cls-1" d="M391.3,252.57c1.03,1.46,2.2,2.8,3.48,4l1.45-.43c2.39-.71,4.56-1.6,6.55-2.64-2.16-1.34-4.01-3.08-5.5-5.17-1.48-2.09-2.51-4.42-3.06-6.91-.53-2.4-.59-4.85-.17-7.29s1.28-4.73,2.58-6.82c1.34-2.17,3.08-4.02,5.18-5.5,2.09-1.48,4.42-2.51,6.9-3.06,1.34-.29,2.71-.44,4.07-.44,1.07,0,2.15.09,3.22.27,2.28.39,4.45,1.18,6.43,2.34.3-2.48.44-4.82.49-6.89l.03-1.03c-1.83-.76-3.74-1.31-5.71-1.65-1.48-.25-2.97-.38-4.46-.38-1.89,0-3.79.21-5.64.61-3.45.76-6.67,2.18-9.57,4.24-2.9,2.05-5.31,4.62-7.17,7.62-1.79,2.9-3,6.08-3.57,9.45s-.5,6.77.24,10.1c.76,3.45,2.18,6.67,4.24,9.57"/>
    <path class="cls-1" d="M425.24,214.09c.49.26.97.54,1.45.84,2.78,1.72,5.19,3.92,7.16,6.54-6.2,36.4-36.69,36.88-36.95,36.89h0c24.49-7.3,28.06-32.38,28.34-44.26"/>
    <path class="cls-1" d="M437.22,227.38c.57,1.39,1.01,2.82,1.34,4.3.73,3.33.81,6.73.24,10.1-.1.58-.22,1.15-.35,1.71-14.39,20.35-37.25,16.79-39.23,16.43-.02-.01-.04-.02-.06-.03,27.15-2.82,35.59-23.02,38.07-32.51"/>
    <path class="cls-1" d="M434.14,252.83c-1.68,2.32-3.72,4.34-6.09,6.01-2.9,2.05-6.12,3.48-9.57,4.24-1.86.41-3.75.61-5.64.61-1.48,0-2.98-.13-4.46-.38-2.44-.42-4.78-1.16-6.99-2.22,15.12,2.57,25.72-2.3,32.75-8.26"/>
    <path class="cls-1" d="M376.99,231.27c-1.77-1.77-3.83-3.1-6.13-4.07-2.38-1.01-4.91-1.27-7.51-1.27-.23,0-.45,0-.68.01v-7.1s18.44,0,18.44,0l5.61-7.86h-32.15s-.03,26.52-.03,26.52c2.07-2.56,5.24-3.89,8.78-3.89,6.24,0,11.29,5.05,11.29,11.29s-5.06,11.29-11.29,11.29c-4.28,0-8.01-2.39-9.92-5.9l-7.01,3.81c3.38,6.23,9.88,10.09,16.96,10.09,2.6,0,5.13-.51,7.51-1.52,2.3-.97,4.36-2.36,6.13-4.13s3.16-3.83,4.13-6.13c1.01-2.38,1.52-4.91,1.52-7.51s-.51-5.13-1.52-7.51c-.97-2.3-2.36-4.36-4.13-6.13"/>
  </g>
  <rect class="cls-1" x="322" y="204.08" width="2" height="65.25"/>
</svg>