<?xml version="1.0" encoding="UTF-8"?>
<svg id="_레이어_1" data-name="레이어 1" xmlns="http://www.w3.org/2000/svg" viewBox="0 0 1920 1080">
  <defs>
    <style>
      .cls-1 {
        fill: #040000;
      }
    </style>
  </defs>
  <g>
    <g>
      <path class="cls-1" d="M713.87,356.73v-145.17h23.11c15.52,0,21.52,7.23,21.52,24.87v29.11c0,9-3,14.46-8.82,16.05,5.64,1.23,10.58,5.47,10.58,16.05v34.57c0,17.11-7.76,24.52-23.28,24.52h-23.11ZM745.98,236.25c0-8.29-2.47-11.11-9-11.11h-9.7v51.33h9.88c6.35,0,8.82-2.82,8.82-9.7v-30.52ZM746.51,299.93c0-8.29-1.76-11.64-9.35-11.64h-9.88v55.21h9.7c6.35,0,9.52-3.7,9.52-11.29v-32.28Z"/>
      <path class="cls-1" d="M771.2,356.73v-145.17h38.45v13.58h-25.05v50.98h17.64v13.41h-17.64v53.98h25.93v13.23h-39.34Z"/>
      <path class="cls-1" d="M836.29,356.73v-65.09l-20.46-80.08h14.11c4.59,19.05,11.82,49.39,13.76,59.8,1.94-10.41,9.17-40.57,14.29-59.8h13.05l-21.17,80.08v65.09h-13.58Z"/>
      <path class="cls-1" d="M875.27,234.66c0-16.4,7.59-24.7,22.76-24.7s22.93,8.29,22.93,24.7v98.96c0,16.4-7.59,24.7-22.93,24.7s-22.76-8.29-22.76-24.7v-98.96ZM907.55,234.66c0-7.41-3.17-11.11-9.52-11.11s-9.35,3.7-9.35,11.11v98.96c0,7.59,3.17,11.47,9.35,11.47s9.52-3.88,9.52-11.47v-98.96Z"/>
      <path class="cls-1" d="M969.12,356.73l-25.05-106.01c.18,22.05.18,42.33.18,64.38v41.63h-11.64v-145.17h16.05l22.23,106.37c-.18-19.93-.18-38.81-.18-58.74v-47.63h11.82v145.17h-13.41Z"/>
      <path class="cls-1" d="M995.4,356.73v-145.17h22.58c15.52,0,22.93,9.35,22.93,24.87v95.61c0,16.4-7.59,24.7-22.93,24.7h-22.58ZM1027.5,236.6c0-7.23-3.17-11.47-9.52-11.47h-9.17v118.36h9.17c6.35,0,9.52-3.88,9.52-11.47v-95.43Z"/>
    </g>
    <g>
      <path class="cls-1" d="M1142.97,359.33v-45.5c0-22.11.18-42.94.37-65.05l-16.26,110.55h-12.24l-16.08-110.55c.18,22.11.37,42.94.37,65.05v45.5h-12.79v-150.38h18.64l15.9,117.49,15.9-117.49h19.19v150.38h-12.97Z"/>
      <path class="cls-1" d="M1168,232.89c0-16.99,7.86-25.58,23.57-25.58s23.75,8.59,23.75,25.58v102.51c0,16.99-7.86,25.58-23.75,25.58s-23.57-8.59-23.57-25.58v-102.51ZM1201.44,232.89c0-7.67-3.29-11.51-9.87-11.51s-9.68,3.84-9.68,11.51v102.51c0,7.86,3.29,11.88,9.68,11.88s9.87-4.02,9.87-11.88v-102.51Z"/>
      <path class="cls-1" d="M1236.71,359.33v-136.31h-16.81v-14.07h47.33v14.07h-16.81v136.31h-13.7Z"/>
      <path class="cls-1" d="M1276.36,359.33v-150.38h13.89v150.38h-13.89Z"/>
      <path class="cls-1" d="M1303.22,232.89c0-16.99,7.86-25.58,23.57-25.58s23.75,8.59,23.75,25.58v102.51c0,16.99-7.86,25.58-23.75,25.58s-23.57-8.59-23.57-25.58v-102.51ZM1336.66,232.89c0-7.67-3.29-11.51-9.87-11.51s-9.68,3.84-9.68,11.51v102.51c0,7.86,3.29,11.88,9.68,11.88s9.87-4.02,9.87-11.88v-102.51Z"/>
      <path class="cls-1" d="M1400.43,359.33l-25.95-109.82c.18,22.84.18,43.85.18,66.69v43.12h-12.06v-150.38h16.63l23.02,110.18c-.18-20.65-.18-40.2-.18-60.85v-49.33h12.24v150.38h-13.89Z"/>
    </g>
  </g>
  <g>
    <g>
      <path class="cls-1" d="M727.62,664.86v-151.37h24.09c16.18,0,22.44,7.54,22.44,25.93v30.35c0,9.38-3.13,15.08-9.2,16.74,5.89,1.29,11.04,5.7,11.04,16.74v36.05c0,17.84-8.09,25.57-24.28,25.57h-24.09ZM761.1,539.24c0-8.64-2.57-11.59-9.38-11.59h-10.12v53.52h10.3c6.62,0,9.2-2.94,9.2-10.12v-31.82ZM761.65,605.64c0-8.64-1.84-12.14-9.75-12.14h-10.3v57.57h10.12c6.62,0,9.93-3.86,9.93-11.77v-33.66Z"/>
      <path class="cls-1" d="M787.4,664.86v-151.37h40.09v14.16h-26.12v53.15h18.39v13.98h-18.39v56.28h27.04v13.79h-41.01Z"/>
      <path class="cls-1" d="M855.26,664.86v-67.87l-21.34-83.5h14.71c4.78,19.86,12.32,51.5,14.35,62.35,2.02-10.85,9.56-42.3,14.9-62.35h13.61l-22.07,83.5v67.87h-14.16Z"/>
      <path class="cls-1" d="M895.91,537.59c0-17.1,7.91-25.75,23.73-25.75s23.91,8.64,23.91,25.75v103.18c0,17.1-7.91,25.75-23.91,25.75s-23.73-8.64-23.73-25.75v-103.18ZM929.56,537.59c0-7.72-3.31-11.59-9.93-11.59s-9.75,3.86-9.75,11.59v103.18c0,7.91,3.31,11.95,9.75,11.95s9.93-4.05,9.93-11.95v-103.18Z"/>
      <path class="cls-1" d="M993.75,664.86l-26.12-110.54c.18,22.99.18,44.14.18,67.13v43.41h-12.14v-151.37h16.74l23.17,110.91c-.18-20.78-.18-40.46-.18-61.25v-49.66h12.32v151.37h-13.98Z"/>
      <path class="cls-1" d="M1021.16,664.86v-151.37h23.54c16.18,0,23.91,9.75,23.91,25.93v99.69c0,17.1-7.91,25.75-23.91,25.75h-23.54ZM1054.63,539.61c0-7.54-3.31-11.95-9.93-11.95h-9.56v123.41h9.56c6.62,0,9.93-4.05,9.93-11.95v-99.5Z"/>
    </g>
    <g>
      <path class="cls-1" d="M786.19,841.44v-47.44c0-23.05.19-44.77.38-67.82l-16.96,115.26h-12.76l-16.77-115.26c.19,23.05.38,44.77.38,67.82v47.44h-13.34v-156.8h19.43l16.58,122.5,16.57-122.5h20v156.8h-13.53Z"/>
      <path class="cls-1" d="M812.29,709.6c0-17.72,8.19-26.67,24.58-26.67s24.77,8.95,24.77,26.67v106.88c0,17.72-8.19,26.67-24.77,26.67s-24.58-8.95-24.58-26.67v-106.88ZM847.15,709.6c0-8-3.43-12-10.29-12s-10.1,4-10.1,12v106.88c0,8.19,3.43,12.38,10.1,12.38s10.29-4.19,10.29-12.38v-106.88Z"/>
      <path class="cls-1" d="M883.92,841.44v-142.13h-17.53v-14.67h49.34v14.67h-17.53v142.13h-14.29Z"/>
      <path class="cls-1" d="M925.26,841.44v-156.8h14.48v156.8h-14.48Z"/>
      <path class="cls-1" d="M953.27,709.6c0-17.72,8.19-26.67,24.58-26.67s24.77,8.95,24.77,26.67v106.88c0,17.72-8.19,26.67-24.77,26.67s-24.58-8.95-24.58-26.67v-106.88ZM988.13,709.6c0-8-3.43-12-10.29-12s-10.1,4-10.1,12v106.88c0,8.19,3.43,12.38,10.1,12.38s10.29-4.19,10.29-12.38v-106.88Z"/>
      <path class="cls-1" d="M1054.62,841.44l-27.05-114.5c.19,23.81.19,45.72.19,69.54v44.96h-12.57v-156.8h17.34l24.01,114.88c-.19-21.53-.19-41.91-.19-63.44v-51.44h12.76v156.8h-14.48Z"/>
    </g>
  </g>
</svg>